<svg xmlns="http://www.w3.org/2000/svg" viewBox="-29.78 -129.78 484.98 205.56"><g fill="#FFFFFF" transform="translate(0.000,0.000) scale(0.141243,-0.141243)"><path transform="translate(10.00,0)" d="M664.20166015625 708V688Q643.6015625 681.1998291015625 619.9014282226562 656.7994995117188Q596.2012939453125 632.399169921875 576.8011474609375 579.7987060546875L357.8021240234375 -2.9998779296875Q351.8018798828125 -2.599853515625 345.20159912109375 -2.39984130859375Q338.601318359375 -2.1998291015625 331.801025390625 -2.1998291015625Q325.4007568359375 -2.1998291015625 318.80047607421875 -2.39984130859375Q312.2001953125 -2.599853515625 306.199951171875 -2.9998779296875L54.99951171875 624Q40.3995361328125 660.7999267578125 22.79962158203125 673.8999633789062Q5.19970703125 687 -10.000244140625 688V708Q16.400146484375 707 53.5006103515625 706.0Q90.60107421875 705 127.0015869140625 705Q170.8018798828125 705 209.2021484375 706.0Q247.6024169921875 707 271.0025634765625 708V688Q238.20263671875 687 220.50262451171875 680.4000244140625Q202.8026123046875 673.800048828125 200.902587890625 656.300048828125Q199.0025634765625 638.800048828125 212.402587890625 604L396.00244140625 131.001220703125L376.80224609375 108.40087890625L526.80078125 507.59765625Q551.801025390625 575.198486328125 552.0010986328125 614.0989990234375Q552.201171875 652.99951171875 530.201171875 669.999755859375Q508.201171875 687 467.001220703125 688V708Q499.6014404296875 707 529.4014282226562 706.0Q559.201416015625 705 588.401611328125 705Q612.00146484375 705 630.6015625 706.0Q649.20166015625 707 664.20166015625 708Z"/><path transform="translate(665.00,0)" d="M278.400390625 530.60009765625Q366.400390625 530.60009765625 416.3004150390625 477.900146484375Q466.200439453125 425.2001953125 466.200439453125 309H129.201416015625L127.8013916015625 328H350.19921875Q351.7991943359375 377 343.79931640625 418.5Q335.7994384765625 460 318.49969482421875 485.0Q301.199951171875 510 273.2003173828125 510Q234.80078125 510 206.70123291015625 465.40008544921875Q178.6016845703125 420.8001708984375 172.4017333984375 319.60009765625L175.8017578125 314Q174.2017822265625 301.0001220703125 173.601806640625 286.2003173828125Q173.0018310546875 271.4005126953125 173.0018310546875 256.20068359375Q173.0018310546875 187.400634765625 193.20172119140625 142.40087890625Q213.401611328125 97.401123046875 245.3013916015625 76.10137939453125Q277.201171875 54.8016357421875 310.8009033203125 54.8016357421875Q334.4005126953125 54.8016357421875 358.40032958984375 62.10150146484375Q382.400146484375 69.4013671875 405.400146484375 88.40118408203125Q428.400146484375 107.4010009765625 447.4002685546875 141.600830078125L466.2001953125 134.40087890625Q454.8001708984375 98.6007080078125 429.20013427734375 64.20050048828125Q403.60009765625 29.80029296875 364.0 7.900146484375Q324.39990234375 -14 270.399658203125 -14Q201.599853515625 -14 149.6998291015625 16.1998291015625Q97.7998046875 46.399658203125 68.89971923828125 105.49969482421875Q39.9996337890625 164.5997314453125 39.9996337890625 250.600341796875Q39.9996337890625 341.800537109375 70.3997802734375 404.1004638671875Q100.7999267578125 466.400390625 154.80010986328125 498.500244140625Q208.80029296875 530.60009765625 278.400390625 530.60009765625Z"/><path transform="translate(1170.00,0)" d="M358.401123046875 530.60009765625Q389.0013427734375 530.60009765625 409.30133056640625 517.7999877929688Q429.601318359375 504.9998779296875 439.70123291015625 485.0997314453125Q449.8011474609375 465.1995849609375 449.8011474609375 442.799560546875Q449.8011474609375 409.799072265625 430.3009033203125 387.79888916015625Q410.8006591796875 365.7987060546875 378.80029296875 365.7987060546875Q348.5997314453125 365.7987060546875 329.99957275390625 381.89886474609375Q311.3994140625 397.9990234375 311.3994140625 425.7991943359375Q311.3994140625 450.799560546875 323.49951171875 467.69976806640625Q335.599609375 484.5999755859375 352.1998291015625 495.400146484375Q340.799560546875 501.39990234375 326.799560546875 498.5997314453125Q303.4000244140625 496.599609375 283.400390625 481.89984130859375Q263.4007568359375 467.2000732421875 249.4010009765625 445.20050048828125Q235.4012451171875 423.200927734375 227.60137939453125 398.10137939453125Q219.801513671875 373.0018310546875 219.801513671875 350.2021484375V103Q219.801513671875 54.4000244140625 244.90130615234375 37.70001220703125Q270.0010986328125 21 317.801025390625 21V0Q294.801025390625 1 251.40093994140625 2.5Q208.0008544921875 4 160.600830078125 4Q122.2005615234375 4 83.70025634765625 2.5Q45.199951171875 1 25.7998046875 0V21Q62.799560546875 21 78.2994384765625 36.0Q93.79931640625 51 93.79931640625 93V407.60009765625Q93.79931640625 452.60009765625 79.3994140625 474.10009765625Q64.99951171875 495.60009765625 25.7998046875 495.60009765625V516.60009765625Q57.7998046875 513.60009765625 87.7998046875 513.60009765625Q125.2003173828125 513.60009765625 158.500732421875 517.10009765625Q191.8011474609375 520.60009765625 219.801513671875 527.60009765625V423.8013916015625Q231.6015625 451.601318359375 251.50152587890625 475.9010009765625Q271.4014892578125 500.20068359375 298.60137939453125 515.400390625Q325.80126953125 530.60009765625 358.401123046875 530.60009765625Z"/><path transform="translate(1629.00,0)" d="M214.801513671875 681V516.0001220703125H342.80029296875V496.0001220703125H214.801513671875V97.7994384765625Q214.801513671875 62.0001220703125 227.80126953125 47.20037841796875Q240.801025390625 32.400634765625 265.20068359375 32.400634765625Q287.6002197265625 32.400634765625 306.800048828125 49.7001953125Q325.9998779296875 66.999755859375 340.7998046875 108.19873046875L358.7996826171875 100.3985595703125Q344.3994140625 51.1990966796875 312.8992919921875 18.59954833984375Q281.399169921875 -14 223.9993896484375 -14Q190.3994140625 -14 166.59930419921875 -5.5Q142.7991943359375 3 125.7991943359375 19.4000244140625Q103.7991943359375 42 96.29925537109375 74.20001220703125Q88.79931640625 106.4000244140625 88.79931640625 159V496.0001220703125H0.7998046875V516.0001220703125H88.79931640625V654.999267578125Q125 655.5992431640625 156.20050048828125 661.5994262695312Q187.4010009765625 667.599609375 214.801513671875 681Z"/><path transform="translate(1981.00,0)" d="M278.400390625 530.60009765625Q366.400390625 530.60009765625 416.3004150390625 477.900146484375Q466.200439453125 425.2001953125 466.200439453125 309H129.201416015625L127.8013916015625 328H350.19921875Q351.7991943359375 377 343.79931640625 418.5Q335.7994384765625 460 318.49969482421875 485.0Q301.199951171875 510 273.2003173828125 510Q234.80078125 510 206.70123291015625 465.40008544921875Q178.6016845703125 420.8001708984375 172.4017333984375 319.60009765625L175.8017578125 314Q174.2017822265625 301.0001220703125 173.601806640625 286.2003173828125Q173.0018310546875 271.4005126953125 173.0018310546875 256.20068359375Q173.0018310546875 187.400634765625 193.20172119140625 142.40087890625Q213.401611328125 97.401123046875 245.3013916015625 76.10137939453125Q277.201171875 54.8016357421875 310.8009033203125 54.8016357421875Q334.4005126953125 54.8016357421875 358.40032958984375 62.10150146484375Q382.400146484375 69.4013671875 405.400146484375 88.40118408203125Q428.400146484375 107.4010009765625 447.4002685546875 141.600830078125L466.2001953125 134.40087890625Q454.8001708984375 98.6007080078125 429.20013427734375 64.20050048828125Q403.60009765625 29.80029296875 364.0 7.900146484375Q324.39990234375 -14 270.399658203125 -14Q201.599853515625 -14 149.6998291015625 16.1998291015625Q97.7998046875 46.399658203125 68.89971923828125 105.49969482421875Q39.9996337890625 164.5997314453125 39.9996337890625 250.600341796875Q39.9996337890625 341.800537109375 70.3997802734375 404.1004638671875Q100.7999267578125 466.400390625 154.80010986328125 498.500244140625Q208.80029296875 530.60009765625 278.400390625 530.60009765625Z"/><path transform="translate(2486.00,0)" d="M234.4013671875 516.60009765625V495.60009765625Q215.0013427734375 495.60009765625 204.20147705078125 486.60009765625Q193.401611328125 477.60009765625 203.401611328125 461.60009765625L468.00146484375 71Q481.80126953125 50.80029296875 495.00128173828125 37.70013427734375Q508.2012939453125 24.5999755859375 526.001220703125 21V0Q512.4010009765625 1 485.30059814453125 2.5Q458.2001953125 4 430.999755859375 4Q396.3995361328125 4 359.49945068359375 2.5Q322.599365234375 1 304.999267578125 0V21Q324.999267578125 21 335.79913330078125 30.29998779296875Q346.5989990234375 39.5999755859375 335.9990234375 55L71.399169921875 445.60009765625Q53.79931640625 471.7999267578125 41.99932861328125 482.5Q30.1993408203125 493.2000732421875 13.3994140625 495.60009765625V516.60009765625Q28.19970703125 515.60009765625 58.000244140625 514.10009765625Q87.80078125 512.60009765625 116.4013671875 512.60009765625Q149.6014404296875 512.60009765625 183.8013916015625 514.10009765625Q218.0013427734375 515.60009765625 234.4013671875 516.60009765625ZM228.1993408203125 247.7991943359375Q228.1993408203125 247.7991943359375 229.79931640625 241.69921875Q231.3992919921875 235.5992431640625 233.29925537109375 229.19927978515625Q235.19921875 222.79931640625 235.19921875 222.79931640625L181.0009765625 152.401611328125Q152.2008056640625 115.201416015625 149.70074462890625 86.00103759765625Q147.20068359375 56.8006591796875 167.20068359375 39.90032958984375Q187.20068359375 23 222.20068359375 20V0Q204.0006103515625 1 178.600341796875 1.5Q153.2000732421875 2 129.2998046875 2.5Q105.3995361328125 3 88.5994873046875 3Q65.99951171875 3 48.6995849609375 2.5Q31.399658203125 2 16.19970703125 0V20Q37.9998779296875 26.4002685546875 58.89990234375 43.5003662109375Q79.7999267578125 60.6004638671875 106.599853515625 94.80029296875ZM500.0008544921875 516.60009765625V496.60009765625Q479.80078125 491.39990234375 456.9007568359375 472.49981689453125Q434.000732421875 453.5997314453125 409.6007080078125 421.7998046875L297.40087890625 276.400634765625Q297.40087890625 276.400634765625 295.8009033203125 282.5006103515625Q294.200927734375 288.6005859375 292.6009521484375 294.7005615234375Q291.0009765625 300.800537109375 291.0009765625 300.800537109375L350.599853515625 381.798828125Q375.800048828125 415.198974609375 381.800048828125 439.999267578125Q387.800048828125 464.799560546875 373.89996337890625 479.49981689453125Q359.9998779296875 494.2000732421875 323.9998779296875 496.60009765625V516.60009765625Q352 515.60009765625 377.70050048828125 514.60009765625Q403.4010009765625 513.60009765625 427.60107421875 513.60009765625Q450.2010498046875 513.60009765625 467.70098876953125 514.60009765625Q485.200927734375 515.60009765625 500.0008544921875 516.60009765625Z"/></g><line x1="0.00" y1="35.75" x2="61.20" y2="35.75" stroke="#16B364" stroke-width="3.28" stroke-linecap="round"/><g fill="#16B364" transform="translate(73.963,46.000) scale(0.013576,-0.013576)"><path transform="translate(-149.76,0)" d="M343.4786376953125 366.6024169921875V619.640380859375Q390.8787841796875 698.280029296875 437.23895263671875 766.4198608398438Q483.59912109375 834.5596923828125 536.4191284179688 901.679443359375Q589.2391357421875 968.7991943359375 653.518798828125 1044.278564453125L1044.8809814453125 1490H1376.6776123046875L745.357421875 777.4012451171875L725.27783203125 783.801025390625ZM149.76123046875 0V1490H416.798095703125V1048.397216796875L411.9981689453125 688.518798828125L416.798095703125 558.080322265625V0ZM1072.0408935546875 0 597.8382568359375 700.7623291015625 765.5162353515625 902.0401611328125 1387.397216796875 0Z"/><path transform="translate(1290.24,0)" d="M49.840087890625 0 569.9609375 1490H909.47607421875L1440.5567626953125 0H1147.6805419921875L883.158447265625 773.844482421875Q844.4388427734375 894.0029296875 802.1589965820312 1045.3017578125Q759.879150390625 1196.6005859375 708.8389892578125 1390.200439453125H764.9981689453125Q715.3179931640625 1195.320556640625 674.5580444335938 1042.74169921875Q633.798095703125 890.162841796875 597.718505859375 773.844482421875L341.83642578125 0ZM352.798828125 369.201904296875V584.159912109375H1137.5980224609375V369.201904296875Z"/><path transform="translate(2780.24,0)" d="M673.1993408203125 -23.1201171875Q500.31982421875 -23.1201171875 372.460205078125 30.85980224609375Q244.6005859375 84.8397216796875 172.9207763671875 187.87933349609375Q101.240966796875 290.9189453125 95.120849609375 438.238037109375H358.1580810546875Q364.7181396484375 359.997802734375 407.05841064453125 308.19769287109375Q449.398681640625 256.3975830078125 518.3389892578125 230.79754638671875Q587.279296875 205.197509765625 671.0394287109375 205.197509765625Q759.0799560546875 205.197509765625 826.4404907226562 232.0777587890625Q893.801025390625 258.9580078125 931.9813842773438 307.61846923828125Q970.1617431640625 356.2789306640625 970.1617431640625 420.1595458984375Q970.1617431640625 478.4801025390625 936.50146484375 516.4603881835938Q902.8411865234375 554.440673828125 842.3209228515625 580.560791015625Q781.8006591796875 606.680908203125 700.720703125 626.8809814453125L531.520263671875 671.041259765625Q345.4005126953125 718.8013916015625 240.54071044921875 816.1412963867188Q135.680908203125 913.481201171875 135.680908203125 1071.2008056640625Q135.680908203125 1202.9605712890625 206.9207763671875 1301.7803955078125Q278.16064453125 1400.6002197265625 401.18035888671875 1455.3001098632812Q524.2000732421875 1510 680.07958984375 1510Q839.319091796875 1510 958.9788208007812 1454.9401245117188Q1078.6385498046875 1399.8802490234375 1146.2984619140625 1303.1805419921875Q1213.9583740234375 1206.4808349609375 1216.87841796875 1081.601318359375H958.161376953125Q948.041259765625 1177.641845703125 872.3406372070312 1230.3021240234375Q796.6400146484375 1282.96240234375 676.239501953125 1282.96240234375Q592.47900390625 1282.96240234375 531.6785278320312 1257.5821533203125Q470.8780517578125 1232.201904296875 438.437744140625 1187.9614868164062Q405.9974365234375 1143.7210693359375 405.9974365234375 1087.04052734375Q405.9974365234375 1024.5198974609375 444.4178466796875 984.57958984375Q482.8382568359375 944.6392822265625 541.4185791015625 920.6591796875Q599.9989013671875 896.6790771484375 659.7586669921875 881.6790771484375L799.0390625 846.078857421875Q881.7181396484375 826.47900390625 959.9779052734375 793.0792236328125Q1038.2376708984375 759.679443359375 1100.8178100585938 709.2196044921875Q1163.39794921875 658.759765625 1200.13818359375 587.0797729492188Q1236.87841796875 515.3997802734375 1236.87841796875 418.239501953125Q1236.87841796875 287.2398681640625 1170.1385498046875 187.61993408203125Q1103.398681640625 88 977.35888671875 32.43994140625Q851.319091796875 -23.1201171875 673.1993408203125 -23.1201171875Z"/><path transform="translate(4112.24,0)" d="M149.76123046875 0V1490H416.798095703125V874.078857421875H1110.24169921875V1490H1377.278564453125V0H1110.24169921875V649.201171875H416.798095703125V0Z"/><path transform="translate(5639.24,0)" d="M149.76123046875 0V1490H552.23583984375L835.3592529296875 720.633056640625Q849.7991943359375 677.9134521484375 868.2791137695312 610.5941772460938Q886.759033203125 543.27490234375 906.3389892578125 465.29571533203125Q925.9189453125 387.3165283203125 943.2789306640625 312.897216796875Q960.638916015625 238.4779052734375 972.5589599609375 181.1982421875H918.679443359375Q931.239501953125 236.557861328125 948.4194946289062 310.337158203125Q965.5994873046875 384.116455078125 985.179443359375 462.4156494140625Q1004.7593994140625 540.71484375 1023.3793334960938 608.994140625Q1041.999267578125 677.2734375 1056.439208984375 720.633056640625L1335.642578125 1490H1739.1171875V0H1472.5604248046875V752.0040283203125Q1472.5604248046875 799.803955078125 1473.7803955078125 867.9835815429688Q1475.0003662109375 936.1632080078125 1477.0403442382812 1014.1226806640625Q1479.080322265625 1092.0821533203125 1480.9403076171875 1171.681640625Q1482.80029296875 1251.2811279296875 1483.4403076171875 1322.560791015625H1501.960205078125Q1482.0401611328125 1244.201171875 1458.7201538085938 1161.5416259765625Q1435.400146484375 1078.882080078125 1412.3601684570312 1001.2225341796875Q1389.3201904296875 923.56298828125 1368.6002197265625 859.0233764648438Q1347.8802490234375 794.4837646484375 1333.1602783203125 752.0040283203125L1057.7579345703125 0H831.200439453125L551.51806640625 752.0040283203125Q536.798095703125 793.84375 516.5381469726562 857.42333984375Q496.2781982421875 921.0029296875 472.87823486328125 998.0224609375Q449.478271484375 1075.0419921875 425.65826416015625 1158.341552734375Q401.8382568359375 1241.64111328125 378.9981689453125 1322.560791015625H400.9580078125Q402.238037109375 1255.76123046875 404.0980224609375 1177.4417724609375Q405.9580078125 1099.122314453125 407.677978515625 1020.2028198242188Q409.39794921875 941.2833251953125 410.93792724609375 871.503662109375Q412.4779052734375 801.7239990234375 412.4779052734375 752.0040283203125V0Z"/><path transform="translate(7528.24,0)" d="M416.798095703125 1490V0H149.76123046875V1490Z"/><path transform="translate(8095.24,0)" d="M149.76123046875 0V1490H707.279296875Q878.3994140625 1490 995.21923828125 1430.1400146484375Q1112.0390625 1370.280029296875 1171.9388427734375 1262.8601684570312Q1231.838623046875 1155.4403076171875 1231.838623046875 1013.440673828125Q1231.838623046875 870.7210693359375 1171.3988647460938 765.8411865234375Q1110.9591064453125 660.9613037109375 993.1993408203125 604.0012817382812Q875.4395751953125 547.041259765625 702.8795166015625 547.041259765625H305.439208984375V768.2391357421875H667.6005859375Q769.041259765625 768.2391357421875 833.1615600585938 796.7993774414062Q897.2818603515625 825.359619140625 928.1219482421875 880.0399780273438Q958.9620361328125 934.7203369140625 958.9620361328125 1013.440673828125Q958.9620361328125 1093.4410400390625 928.1219482421875 1149.7614135742188Q897.2818603515625 1206.081787109375 832.841552734375 1236.2820434570312Q768.4012451171875 1266.4822998046875 666.320556640625 1266.4822998046875H416.798095703125V0ZM987.761962890625 0 626.322021484375 675.6798095703125H918.078857421875L1286.958740234375 0Z"/><path transform="translate(9431.24,0)" d=""/><path transform="translate(9947.24,0)" d="M149.76123046875 0V1490H416.798095703125V874.078857421875H1110.24169921875V1490H1377.278564453125V0H1110.24169921875V649.201171875H416.798095703125V0Z"/><path transform="translate(11474.24,0)" d="M787.599853515625 -20Q592.280029296875 -20 437.3802490234375 70.88006591796875Q282.48046875 161.7601318359375 192.880615234375 332.900146484375Q103.28076171875 504.0401611328125 103.28076171875 744Q103.28076171875 985.31982421875 192.880615234375 1156.6398315429688Q282.48046875 1327.9598388671875 437.3802490234375 1418.9799194335938Q592.280029296875 1510 787.599853515625 1510Q982.919677734375 1510 1137.3194580078125 1418.9799194335938Q1291.71923828125 1327.9598388671875 1381.1790771484375 1156.6398315429688Q1470.638916015625 985.31982421875 1470.638916015625 744Q1470.638916015625 503.68017578125 1381.1790771484375 332.5401611328125Q1291.71923828125 161.400146484375 1137.3194580078125 70.7000732421875Q982.919677734375 -20 787.599853515625 -20ZM787.599853515625 219.357421875Q909.080322265625 219.357421875 1002.5408935546875 279.65771484375Q1096.00146484375 339.9580078125 1149.2418823242188 457.23858642578125Q1202.4822998046875 574.5191650390625 1202.4822998046875 744Q1202.4822998046875 915.120849609375 1149.2418823242188 1032.5814208984375Q1096.00146484375 1150.0419921875 1002.5408935546875 1210.34228515625Q909.080322265625 1270.642578125 787.599853515625 1270.642578125Q665.83935546875 1270.642578125 572.0587768554688 1210.0222778320312Q478.2781982421875 1149.4019775390625 424.8577880859375 1031.94140625Q371.4373779296875 914.4808349609375 371.4373779296875 744Q371.4373779296875 574.5191650390625 424.8577880859375 457.55859375Q478.2781982421875 340.5980224609375 572.0587768554688 279.97772216796875Q665.83935546875 219.357421875 787.599853515625 219.357421875Z"/><path transform="translate(13048.24,0)" d="M149.76123046875 0V1490H416.798095703125V224.877685546875H1075.119384765625V0Z"/><path transform="translate(14206.24,0)" d="M416.798095703125 1490V0H149.76123046875V1490Z"/><path transform="translate(14773.24,0)" d="M653.9996337890625 0H276.7203369140625V231.357421875H640.5596923828125Q797.000732421875 231.357421875 901.7413330078125 288.43792724609375Q1006.48193359375 345.5184326171875 1059.002197265625 460.21905517578125Q1111.5224609375 574.919677734375 1111.5224609375 746.56005859375Q1111.5224609375 917.2803955078125 1058.9622192382812 1031.02099609375Q1006.4019775390625 1144.7615966796875 903.50146484375 1201.7020874023438Q800.6009521484375 1258.642578125 647.7601318359375 1258.642578125H269.4403076171875V1490H664Q886.31982421875 1490 1045.3196411132812 1400.8200073242188Q1204.3194580078125 1311.6400146484375 1289.8793334960938 1144.9600219726562Q1375.439208984375 978.280029296875 1375.439208984375 746.56005859375Q1375.439208984375 513.9200439453125 1289.7393188476562 346.60003662109375Q1204.0394287109375 179.280029296875 1042.51953125 89.6400146484375Q880.9996337890625 0 653.9996337890625 0ZM416.798095703125 1490V0H149.76123046875V1490Z"/><path transform="translate(16252.24,0)" d="M49.840087890625 0 569.9609375 1490H909.47607421875L1440.5567626953125 0H1147.6805419921875L883.158447265625 773.844482421875Q844.4388427734375 894.0029296875 802.1589965820312 1045.3017578125Q759.879150390625 1196.6005859375 708.8389892578125 1390.200439453125H764.9981689453125Q715.3179931640625 1195.320556640625 674.5580444335938 1042.74169921875Q633.798095703125 890.162841796875 597.718505859375 773.844482421875L341.83642578125 0ZM352.798828125 369.201904296875V584.159912109375H1137.5980224609375V369.201904296875Z"/><path transform="translate(17742.24,0)" d="M600.3599853515625 0V576.88134765625L49.840087890625 1490H361.6363525390625L627.8375244140625 1020.1595458984375Q670.27783203125 946.3592529296875 703.1980590820312 876.09912109375Q736.1182861328125 805.8389892578125 770.99853515625 704.6385498046875H701.1182861328125Q735.278564453125 807.1190185546875 767.798828125 878.0191650390625Q800.319091796875 948.9193115234375 840.4793701171875 1020.1595458984375L1101.000732421875 1490H1411.43701171875L866.6768798828125 576.88134765625V0Z"/><path transform="translate(19203.24,0)" d="M673.1993408203125 -23.1201171875Q500.31982421875 -23.1201171875 372.460205078125 30.85980224609375Q244.6005859375 84.8397216796875 172.9207763671875 187.87933349609375Q101.240966796875 290.9189453125 95.120849609375 438.238037109375H358.1580810546875Q364.7181396484375 359.997802734375 407.05841064453125 308.19769287109375Q449.398681640625 256.3975830078125 518.3389892578125 230.79754638671875Q587.279296875 205.197509765625 671.0394287109375 205.197509765625Q759.0799560546875 205.197509765625 826.4404907226562 232.0777587890625Q893.801025390625 258.9580078125 931.9813842773438 307.61846923828125Q970.1617431640625 356.2789306640625 970.1617431640625 420.1595458984375Q970.1617431640625 478.4801025390625 936.50146484375 516.4603881835938Q902.8411865234375 554.440673828125 842.3209228515625 580.560791015625Q781.8006591796875 606.680908203125 700.720703125 626.8809814453125L531.520263671875 671.041259765625Q345.4005126953125 718.8013916015625 240.54071044921875 816.1412963867188Q135.680908203125 913.481201171875 135.680908203125 1071.2008056640625Q135.680908203125 1202.9605712890625 206.9207763671875 1301.7803955078125Q278.16064453125 1400.6002197265625 401.18035888671875 1455.3001098632812Q524.2000732421875 1510 680.07958984375 1510Q839.319091796875 1510 958.9788208007812 1454.9401245117188Q1078.6385498046875 1399.8802490234375 1146.2984619140625 1303.1805419921875Q1213.9583740234375 1206.4808349609375 1216.87841796875 1081.601318359375H958.161376953125Q948.041259765625 1177.641845703125 872.3406372070312 1230.3021240234375Q796.6400146484375 1282.96240234375 676.239501953125 1282.96240234375Q592.47900390625 1282.96240234375 531.6785278320312 1257.5821533203125Q470.8780517578125 1232.201904296875 438.437744140625 1187.9614868164062Q405.9974365234375 1143.7210693359375 405.9974365234375 1087.04052734375Q405.9974365234375 1024.5198974609375 444.4178466796875 984.57958984375Q482.8382568359375 944.6392822265625 541.4185791015625 920.6591796875Q599.9989013671875 896.6790771484375 659.7586669921875 881.6790771484375L799.0390625 846.078857421875Q881.7181396484375 826.47900390625 959.9779052734375 793.0792236328125Q1038.2376708984375 759.679443359375 1100.8178100585938 709.2196044921875Q1163.39794921875 658.759765625 1200.13818359375 587.0797729492188Q1236.87841796875 515.3997802734375 1236.87841796875 418.239501953125Q1236.87841796875 287.2398681640625 1170.1385498046875 187.61993408203125Q1103.398681640625 88 977.35888671875 32.43994140625Q851.319091796875 -23.1201171875 673.1993408203125 -23.1201171875Z"/></g><line x1="364.22" y1="35.75" x2="425.42" y2="35.75" stroke="#16B364" stroke-width="3.28" stroke-linecap="round"/></svg>